<mxfile host="app.diagrams.net" modified="2021-04-07T10:50:17.497Z" agent="5.0 (Windows NT 10.0; Win64; x64) AppleWebKit/537.36 (KHTML, like Gecko) Chrome/88.0.4324.104 Safari/537.36" etag="IalH4FHIbFLn8WisjLVB" version="14.5.3" type="github">
  <diagram id="6TlhoL8ntNu1iF-87Hd0" name="第 1 页">
    <mxGraphModel dx="870" dy="595" grid="1" gridSize="10" guides="1" tooltips="1" connect="1" arrows="1" fold="1" page="1" pageScale="1" pageWidth="827" pageHeight="1169" math="0" shadow="0">
      <root>
        <mxCell id="0" />
        <mxCell id="1" parent="0" />
        <mxCell id="nTXDeevqYNl3FQQgMFSd-19" style="edgeStyle=orthogonalEdgeStyle;rounded=0;orthogonalLoop=1;jettySize=auto;html=1;exitX=0.5;exitY=1;exitDx=0;exitDy=0;entryX=0.5;entryY=0;entryDx=0;entryDy=0;curved=1;" edge="1" parent="1" source="nTXDeevqYNl3FQQgMFSd-1" target="nTXDeevqYNl3FQQgMFSd-2">
          <mxGeometry relative="1" as="geometry" />
        </mxCell>
        <mxCell id="nTXDeevqYNl3FQQgMFSd-20" style="edgeStyle=orthogonalEdgeStyle;curved=1;rounded=0;orthogonalLoop=1;jettySize=auto;html=1;" edge="1" parent="1" source="nTXDeevqYNl3FQQgMFSd-1" target="nTXDeevqYNl3FQQgMFSd-16">
          <mxGeometry relative="1" as="geometry" />
        </mxCell>
        <mxCell id="nTXDeevqYNl3FQQgMFSd-1" value="&lt;font style=&quot;font-size: 16px&quot;&gt;3&lt;/font&gt;" style="ellipse;whiteSpace=wrap;html=1;aspect=fixed;" vertex="1" parent="1">
          <mxGeometry x="90" y="120" width="80" height="80" as="geometry" />
        </mxCell>
        <mxCell id="nTXDeevqYNl3FQQgMFSd-2" value="&lt;font style=&quot;font-size: 16px&quot;&gt;9&lt;/font&gt;" style="ellipse;whiteSpace=wrap;html=1;aspect=fixed;" vertex="1" parent="1">
          <mxGeometry x="10" y="240" width="80" height="80" as="geometry" />
        </mxCell>
        <mxCell id="nTXDeevqYNl3FQQgMFSd-3" value="" style="shape=table;html=1;whiteSpace=wrap;startSize=0;container=1;collapsible=0;childLayout=tableLayout;fillColor=#ffe6cc;strokeColor=#d79b00;" vertex="1" parent="1">
          <mxGeometry x="470" y="105" width="330" height="350" as="geometry" />
        </mxCell>
        <mxCell id="nTXDeevqYNl3FQQgMFSd-4" value="" style="shape=partialRectangle;html=1;whiteSpace=wrap;collapsible=0;dropTarget=0;pointerEvents=0;fillColor=none;top=0;left=0;bottom=0;right=0;points=[[0,0.5],[1,0.5]];portConstraint=eastwest;" vertex="1" parent="nTXDeevqYNl3FQQgMFSd-3">
          <mxGeometry width="330" height="117" as="geometry" />
        </mxCell>
        <mxCell id="nTXDeevqYNl3FQQgMFSd-5" value="" style="shape=partialRectangle;html=1;whiteSpace=wrap;connectable=0;fillColor=none;top=0;left=0;bottom=0;right=0;overflow=hidden;" vertex="1" parent="nTXDeevqYNl3FQQgMFSd-4">
          <mxGeometry width="109" height="117" as="geometry" />
        </mxCell>
        <mxCell id="nTXDeevqYNl3FQQgMFSd-6" value="" style="shape=partialRectangle;html=1;whiteSpace=wrap;connectable=0;fillColor=none;top=0;left=0;bottom=0;right=0;overflow=hidden;" vertex="1" parent="nTXDeevqYNl3FQQgMFSd-4">
          <mxGeometry x="109" width="112" height="117" as="geometry" />
        </mxCell>
        <mxCell id="nTXDeevqYNl3FQQgMFSd-7" value="" style="shape=partialRectangle;html=1;whiteSpace=wrap;connectable=0;fillColor=none;top=0;left=0;bottom=0;right=0;overflow=hidden;" vertex="1" parent="nTXDeevqYNl3FQQgMFSd-4">
          <mxGeometry x="221" width="109" height="117" as="geometry" />
        </mxCell>
        <mxCell id="nTXDeevqYNl3FQQgMFSd-8" value="" style="shape=partialRectangle;html=1;whiteSpace=wrap;collapsible=0;dropTarget=0;pointerEvents=0;fillColor=none;top=0;left=0;bottom=0;right=0;points=[[0,0.5],[1,0.5]];portConstraint=eastwest;" vertex="1" parent="nTXDeevqYNl3FQQgMFSd-3">
          <mxGeometry y="117" width="330" height="116" as="geometry" />
        </mxCell>
        <mxCell id="nTXDeevqYNl3FQQgMFSd-9" value="" style="shape=partialRectangle;html=1;whiteSpace=wrap;connectable=0;fillColor=none;top=0;left=0;bottom=0;right=0;overflow=hidden;" vertex="1" parent="nTXDeevqYNl3FQQgMFSd-8">
          <mxGeometry width="109" height="116" as="geometry" />
        </mxCell>
        <mxCell id="nTXDeevqYNl3FQQgMFSd-10" value="" style="shape=partialRectangle;html=1;whiteSpace=wrap;connectable=0;fillColor=none;top=0;left=0;bottom=0;right=0;overflow=hidden;" vertex="1" parent="nTXDeevqYNl3FQQgMFSd-8">
          <mxGeometry x="109" width="112" height="116" as="geometry" />
        </mxCell>
        <mxCell id="nTXDeevqYNl3FQQgMFSd-11" value="" style="shape=partialRectangle;html=1;whiteSpace=wrap;connectable=0;fillColor=none;top=0;left=0;bottom=0;right=0;overflow=hidden;" vertex="1" parent="nTXDeevqYNl3FQQgMFSd-8">
          <mxGeometry x="221" width="109" height="116" as="geometry" />
        </mxCell>
        <mxCell id="nTXDeevqYNl3FQQgMFSd-12" value="" style="shape=partialRectangle;html=1;whiteSpace=wrap;collapsible=0;dropTarget=0;pointerEvents=0;fillColor=none;top=0;left=0;bottom=0;right=0;points=[[0,0.5],[1,0.5]];portConstraint=eastwest;" vertex="1" parent="nTXDeevqYNl3FQQgMFSd-3">
          <mxGeometry y="233" width="330" height="117" as="geometry" />
        </mxCell>
        <mxCell id="nTXDeevqYNl3FQQgMFSd-13" value="" style="shape=partialRectangle;html=1;whiteSpace=wrap;connectable=0;fillColor=none;top=0;left=0;bottom=0;right=0;overflow=hidden;" vertex="1" parent="nTXDeevqYNl3FQQgMFSd-12">
          <mxGeometry width="109" height="117" as="geometry" />
        </mxCell>
        <mxCell id="nTXDeevqYNl3FQQgMFSd-14" value="" style="shape=partialRectangle;html=1;whiteSpace=wrap;connectable=0;fillColor=none;top=0;left=0;bottom=0;right=0;overflow=hidden;" vertex="1" parent="nTXDeevqYNl3FQQgMFSd-12">
          <mxGeometry x="109" width="112" height="117" as="geometry" />
        </mxCell>
        <mxCell id="nTXDeevqYNl3FQQgMFSd-15" value="" style="shape=partialRectangle;html=1;whiteSpace=wrap;connectable=0;fillColor=none;top=0;left=0;bottom=0;right=0;overflow=hidden;" vertex="1" parent="nTXDeevqYNl3FQQgMFSd-12">
          <mxGeometry x="221" width="109" height="117" as="geometry" />
        </mxCell>
        <mxCell id="nTXDeevqYNl3FQQgMFSd-21" style="edgeStyle=orthogonalEdgeStyle;curved=1;rounded=0;orthogonalLoop=1;jettySize=auto;html=1;entryX=0.5;entryY=0;entryDx=0;entryDy=0;" edge="1" parent="1" source="nTXDeevqYNl3FQQgMFSd-16" target="nTXDeevqYNl3FQQgMFSd-17">
          <mxGeometry relative="1" as="geometry" />
        </mxCell>
        <mxCell id="nTXDeevqYNl3FQQgMFSd-22" style="edgeStyle=orthogonalEdgeStyle;curved=1;rounded=0;orthogonalLoop=1;jettySize=auto;html=1;entryX=0.5;entryY=0;entryDx=0;entryDy=0;" edge="1" parent="1" source="nTXDeevqYNl3FQQgMFSd-16" target="nTXDeevqYNl3FQQgMFSd-18">
          <mxGeometry relative="1" as="geometry" />
        </mxCell>
        <mxCell id="nTXDeevqYNl3FQQgMFSd-16" value="&lt;font style=&quot;font-size: 16px&quot;&gt;20&lt;/font&gt;" style="ellipse;whiteSpace=wrap;html=1;aspect=fixed;" vertex="1" parent="1">
          <mxGeometry x="170" y="240" width="80" height="80" as="geometry" />
        </mxCell>
        <mxCell id="nTXDeevqYNl3FQQgMFSd-17" value="&lt;font style=&quot;font-size: 16px&quot;&gt;15&lt;/font&gt;" style="ellipse;whiteSpace=wrap;html=1;aspect=fixed;" vertex="1" parent="1">
          <mxGeometry x="90" y="360" width="80" height="80" as="geometry" />
        </mxCell>
        <mxCell id="nTXDeevqYNl3FQQgMFSd-18" value="&lt;font style=&quot;font-size: 16px&quot;&gt;7&lt;/font&gt;" style="ellipse;whiteSpace=wrap;html=1;aspect=fixed;" vertex="1" parent="1">
          <mxGeometry x="250" y="360" width="80" height="80" as="geometry" />
        </mxCell>
        <mxCell id="nTXDeevqYNl3FQQgMFSd-28" value="" style="endArrow=none;dashed=1;html=1;strokeWidth=4;fillColor=#f8cecc;strokeColor=#b85450;" edge="1" parent="1">
          <mxGeometry width="50" height="50" relative="1" as="geometry">
            <mxPoint x="209" y="159.5" as="sourcePoint" />
            <mxPoint x="414" y="160" as="targetPoint" />
          </mxGeometry>
        </mxCell>
        <mxCell id="nTXDeevqYNl3FQQgMFSd-29" value="" style="group" vertex="1" connectable="0" parent="1">
          <mxGeometry x="414" y="60" width="100" height="80" as="geometry" />
        </mxCell>
        <mxCell id="nTXDeevqYNl3FQQgMFSd-23" value="" style="endArrow=classic;html=1;strokeWidth=2;" edge="1" parent="nTXDeevqYNl3FQQgMFSd-29">
          <mxGeometry width="50" height="50" relative="1" as="geometry">
            <mxPoint x="40" y="20" as="sourcePoint" />
            <mxPoint x="100" y="20" as="targetPoint" />
          </mxGeometry>
        </mxCell>
        <mxCell id="nTXDeevqYNl3FQQgMFSd-24" value="" style="endArrow=classic;html=1;strokeWidth=2;" edge="1" parent="nTXDeevqYNl3FQQgMFSd-29">
          <mxGeometry width="50" height="50" relative="1" as="geometry">
            <mxPoint x="39.5" y="20" as="sourcePoint" />
            <mxPoint x="39.5" y="80" as="targetPoint" />
          </mxGeometry>
        </mxCell>
        <mxCell id="nTXDeevqYNl3FQQgMFSd-25" value="&lt;font style=&quot;font-size: 16px&quot;&gt;x&lt;/font&gt;" style="text;html=1;strokeColor=none;fillColor=none;align=center;verticalAlign=middle;whiteSpace=wrap;rounded=0;" vertex="1" parent="nTXDeevqYNl3FQQgMFSd-29">
          <mxGeometry x="40" width="40" height="20" as="geometry" />
        </mxCell>
        <mxCell id="nTXDeevqYNl3FQQgMFSd-26" value="&lt;font style=&quot;font-size: 16px&quot;&gt;y&lt;/font&gt;" style="text;html=1;strokeColor=none;fillColor=none;align=center;verticalAlign=middle;whiteSpace=wrap;rounded=0;" vertex="1" parent="nTXDeevqYNl3FQQgMFSd-29">
          <mxGeometry y="30" width="40" height="20" as="geometry" />
        </mxCell>
        <mxCell id="nTXDeevqYNl3FQQgMFSd-32" value="" style="endArrow=none;dashed=1;html=1;strokeWidth=4;fillColor=#f8cecc;strokeColor=#b85450;" edge="1" parent="1">
          <mxGeometry width="50" height="50" relative="1" as="geometry">
            <mxPoint x="264" y="279.5" as="sourcePoint" />
            <mxPoint x="414" y="279.5" as="targetPoint" />
          </mxGeometry>
        </mxCell>
        <mxCell id="nTXDeevqYNl3FQQgMFSd-33" value="" style="endArrow=none;dashed=1;html=1;strokeWidth=4;fillColor=#f8cecc;strokeColor=#b85450;" edge="1" parent="1">
          <mxGeometry width="50" height="50" relative="1" as="geometry">
            <mxPoint x="333" y="399.5" as="sourcePoint" />
            <mxPoint x="414" y="400" as="targetPoint" />
            <Array as="points">
              <mxPoint x="394" y="400" />
            </Array>
          </mxGeometry>
        </mxCell>
        <mxCell id="nTXDeevqYNl3FQQgMFSd-34" value="&lt;font style=&quot;font-size: 16px&quot;&gt;level1&lt;/font&gt;" style="text;html=1;strokeColor=none;fillColor=none;align=center;verticalAlign=middle;whiteSpace=wrap;rounded=0;" vertex="1" parent="1">
          <mxGeometry x="420" y="150" width="40" height="20" as="geometry" />
        </mxCell>
        <mxCell id="nTXDeevqYNl3FQQgMFSd-35" value="&lt;font style=&quot;font-size: 16px&quot;&gt;level2&lt;/font&gt;" style="text;html=1;strokeColor=none;fillColor=none;align=center;verticalAlign=middle;whiteSpace=wrap;rounded=0;" vertex="1" parent="1">
          <mxGeometry x="420" y="270" width="40" height="20" as="geometry" />
        </mxCell>
        <mxCell id="nTXDeevqYNl3FQQgMFSd-36" value="&lt;font style=&quot;font-size: 16px&quot;&gt;level3&lt;/font&gt;" style="text;html=1;strokeColor=none;fillColor=none;align=center;verticalAlign=middle;whiteSpace=wrap;rounded=0;" vertex="1" parent="1">
          <mxGeometry x="420" y="390" width="40" height="20" as="geometry" />
        </mxCell>
      </root>
    </mxGraphModel>
  </diagram>
</mxfile>
